<?xml version="1.0" encoding="utf-8"?>
<!-- Generator: Adobe Illustrator 23.0.0, SVG Export Plug-In . SVG Version: 6.00 Build 0)  -->
<!DOCTYPE svg PUBLIC "-//W3C//DTD SVG 1.1//EN" "http://www.w3.org/Graphics/SVG/1.1/DTD/svg11.dtd" [
	<!ENTITY st0 "fill:#F5F6F7;">
	<!ENTITY st1 "fill:#91A833;">
	<!ENTITY st2 "fill:#353535;">
	<!ENTITY st3 "fill:none;stroke:#F5F6F7;stroke-width:3;stroke-miterlimit:10;">
	<!ENTITY st4 "fill:url(#shape_3_3_);">
	<!ENTITY st5 "fill:url(#SVGID_1_);">
	<!ENTITY st6 "fill-rule:evenodd;clip-rule:evenodd;fill:#FFFFFF;">
	<!ENTITY st7 "opacity:0.12;">
	<!ENTITY st8 "fill:#1C2232;">
	<!ENTITY st9 "opacity:0.53;fill:#91A833;">
	<!ENTITY st10 "fill:#0FA3E4;">
	<!ENTITY st11 "fill:url(#XMLID_129_);">
	<!ENTITY st12 "fill:#ED8B24;">
	<!ENTITY st13 "fill:url(#XMLID_130_);">
	<!ENTITY st14 "clip-path:url(#XMLID_131_);">
	<!ENTITY st15 "fill:url(#XMLID_133_);">
	<!ENTITY st16 "fill:url(#XMLID_134_);">
	<!ENTITY st17 "fill:url(#XMLID_136_);">
	<!ENTITY st18 "fill:url(#XMLID_137_);">
	<!ENTITY st19 "clip-path:url(#XMLID_138_);">
	<!ENTITY st20 "fill:url(#XMLID_140_);">
	<!ENTITY st21 "fill:url(#XMLID_141_);">
	<!ENTITY st22 "fill:#FFFFFF;">
	<!ENTITY st23 "fill:#0697D5;">
	<!ENTITY st24 "fill:#F76819;">
	<!ENTITY st25 "fill:#5F6161;">
	<!ENTITY st26 "fill:#717372;">
	<!ENTITY st27 "fill:url(#XMLID_143_);">
	<!ENTITY st28 "fill:url(#XMLID_144_);">
	<!ENTITY st29 "fill:#253E80;">
	<!ENTITY st30 "fill:url(#XMLID_145_);">
	<!ENTITY st31 "fill:url(#XMLID_146_);">
	<!ENTITY st32 "fill:url(#XMLID_147_);">
	<!ENTITY st33 "opacity:0.4;">
	<!ENTITY st34 "fill:#FFFFFF;stroke:#909090;stroke-width:0.5;stroke-miterlimit:10;">
	<!ENTITY st35 "fill:#606060;stroke:#606060;stroke-width:0.1;stroke-miterlimit:10;">
	<!ENTITY st36 "fill:url(#shape_3_5_);">
	<!ENTITY st37 "fill:url(#SVGID_5_);">
	<!ENTITY st38 "opacity:0.25;fill:#37594E;">
	<!ENTITY st39 "fill:#37594E;">
	<!ENTITY st40 "fill:none;stroke:#FFFFFF;stroke-width:4;stroke-miterlimit:10;">
	<!ENTITY st41 "fill:url(#XMLID_152_);">
	<!ENTITY st42 "fill:url(#XMLID_153_);">
	<!ENTITY st43 "clip-path:url(#XMLID_154_);">
	<!ENTITY st44 "fill:url(#XMLID_156_);">
	<!ENTITY st45 "fill:url(#XMLID_157_);">
	<!ENTITY st46 "fill:url(#XMLID_159_);">
	<!ENTITY st47 "fill:url(#XMLID_160_);">
	<!ENTITY st48 "clip-path:url(#XMLID_161_);">
	<!ENTITY st49 "fill:url(#XMLID_163_);">
	<!ENTITY st50 "fill:url(#XMLID_164_);">
	<!ENTITY st51 "fill:#708A1D;">
	<!ENTITY st52 "fill:url(#XMLID_208_);">
	<!ENTITY st53 "fill:url(#XMLID_209_);">
	<!ENTITY st54 "clip-path:url(#XMLID_210_);">
	<!ENTITY st55 "fill:url(#XMLID_212_);">
	<!ENTITY st56 "fill:url(#XMLID_213_);">
	<!ENTITY st57 "fill:url(#XMLID_215_);">
	<!ENTITY st58 "fill:url(#XMLID_216_);">
	<!ENTITY st59 "clip-path:url(#XMLID_217_);">
	<!ENTITY st60 "fill:url(#XMLID_219_);">
	<!ENTITY st61 "fill:url(#XMLID_220_);">
	<!ENTITY st62 "fill:url(#XMLID_222_);">
	<!ENTITY st63 "fill:url(#XMLID_223_);">
	<!ENTITY st64 "fill:url(#XMLID_224_);">
	<!ENTITY st65 "fill:url(#XMLID_225_);">
	<!ENTITY st66 "fill:url(#XMLID_226_);">
	<!ENTITY st67 "fill:#DBDFE0;">
	<!ENTITY st68 "fill:#37584D;">
	<!ENTITY st69 "fill:#DD003F;">
	<!ENTITY st70 "fill:#F19B04;">
	<!ENTITY st71 "fill:#58BBDA;">
	<!ENTITY st72 "fill:#858388;">
	<!ENTITY st73 "fill:url(#XMLID_231_);">
	<!ENTITY st74 "fill:url(#XMLID_232_);">
	<!ENTITY st75 "fill:#243E81;">
	<!ENTITY st76 "fill:url(#XMLID_233_);">
	<!ENTITY st77 "fill:url(#XMLID_234_);">
	<!ENTITY st78 "fill:url(#XMLID_235_);">
	<!ENTITY st79 "fill:url(#XMLID_240_);">
	<!ENTITY st80 "fill:url(#XMLID_241_);">
	<!ENTITY st81 "fill:url(#XMLID_242_);">
	<!ENTITY st82 "fill:url(#XMLID_243_);">
	<!ENTITY st83 "fill:url(#XMLID_244_);">
	<!ENTITY st84 "fill:url(#XMLID_249_);">
	<!ENTITY st85 "fill:url(#XMLID_250_);">
	<!ENTITY st86 "fill:url(#XMLID_251_);">
	<!ENTITY st87 "fill:url(#XMLID_252_);">
	<!ENTITY st88 "fill:url(#XMLID_253_);">
	<!ENTITY st89 "fill:url(#XMLID_258_);">
	<!ENTITY st90 "fill:url(#XMLID_259_);">
	<!ENTITY st91 "fill:url(#XMLID_260_);">
	<!ENTITY st92 "fill:url(#XMLID_261_);">
	<!ENTITY st93 "fill:url(#XMLID_262_);">
	<!ENTITY st94 "fill:url(#XMLID_267_);">
	<!ENTITY st95 "fill:url(#XMLID_268_);">
	<!ENTITY st96 "fill:url(#XMLID_269_);">
	<!ENTITY st97 "fill:url(#XMLID_270_);">
	<!ENTITY st98 "fill:url(#XMLID_271_);">
]>
<svg version="1.1" id="Capa_1" xmlns="http://www.w3.org/2000/svg" xmlns:xlink="http://www.w3.org/1999/xlink" x="0px" y="0px"
	 viewBox="0 0 596 355" style="enable-background:new 0 0 596 355;" xml:space="preserve">
<g>
	<path style="&st0;" d="M-3,0v355h602V0H-3z M583.4,42.2c-0.2,0.3-0.6,0.7-1.2,1.2c0.2,3.9,0.2,7.9,0.1,11.9
		c-0.1,2.9-0.1,5.8-0.2,8.6c-0.2,13.6,0,26.7-0.2,40.3c0,1.8-0.1,3.7-0.1,5.6c0,0.6,0,1.2,0,1.8c-0.4,17.5-0.3,35.9-1.4,53.8
		c-0.2,2.9-0.4,5.7-0.6,8.5c-0.2,2.1-0.3,4.2-0.5,6.3c-1.2,15.9-1.9,31.9-3.1,47.4c-0.3,4.2-0.7,8.5-1,12.7c0.6,13,1,25.5,1.6,38.5
		c0.1,2.7,0.3,5.5,0.4,8.3c0.2,3.9,0.3,7.7,0.4,11.5c0.3,0.4,0.5,0.8,0.6,1.1c0.5,1.7,0,3.1-0.5,4.5c-0.5,1.2-0.9,2.4-0.9,3.9
		c0,1.5,1,2.2,0.9,5c0-0.6-0.9,3.2-0.7,2.9c-0.4,0.6-1.1-0.1-1.6,0.2c0,0-0.3,1.6-0.4,1.7c-1.2,1.2-1.4,0.8-2.5,2.8
		c-0.8,1.5-1.7,4.5-2.7,5c-0.7,0.3-2.1-0.3-3-0.2c-0.8,0.1-1.3,1.3-2,1.8c-0.7,0.5-1.8,0.9-2.4,1.1c-1.4,0.5-2.6,1.6-3.8,2.1
		c-4.9,2-10.1,1.8-15.1,1c-0.4-0.1-0.9-0.1-1.3-0.2c-3.3-0.7-6.7-1.9-10-1.6c-3.1,0.3-6.2-0.6-9.3-1.1c-0.5,0-1,0-1.4,0
		c-1,0-10.1-0.3-9.7,2c0.3-0.1,0.5,0.1,0.6,0.6c-0.3,0.5-4,0.9-4.8,1.3c-0.5,0.3-0.6,1.9-1.4,2.3c-1,0.5-3.2-0.1-4.3-0.1
		c-5.2-0.1-10.4-0.6-15.8-1.4c-7.6-1.2-15.4-0.3-23,0.6c-6.8,1.3-13.5,2.5-20.3,3.1c-3.8,0.4-7.6,0.6-11.6,0.8
		c-8.9,1.3-17.8,2.5-26.9,3.4c-34.5,3.3-72,4.6-106.5,3.8c-22.7-0.5-45.4-2.7-67.9-3.8c-4.8-0.3-10.1-1-15-1.7
		c-5.6-0.8-11.7,0.1-17.4-0.9c-10.6-1.8-22.3-4-33.3-2.6c-8.2,1.1-16.7,4-25,3.8c-9.4-0.2-18.8,2.2-28.1,2
		c-6.8-0.2-13.8,1.3-20.6,2.1c-0.9,0.1-1.8,0.2-2.7,0.3c-10.3,1-21.1,1.5-31.5-0.3c-2.6-0.5-5.3-1.6-8.2-2c-1.4-0.2-3.6-0.5-5.2-1
		c-1.7-0.5-2.8-1.8-4.4-1.8c-1.9,0-4.8,0.7-6.3,0.3c-2.1-0.4-4.2-3.5-6-5c-2.3-2.1-2.8-1.6-5.3-2.8c-0.2-0.1-1.1-1.8-1-1.7
		c-1-0.3-2.4,0.5-3.3-0.1c0.4,0.3-1.8-3.6-1.7-3c-0.4-2.9,1.6-3.7,1.5-5.3c-0.1-1.6-1.2-2.8-2.2-4c-1.2-1.5-2.4-2.9-1.5-4.7
		c0.2-0.3,0.6-0.7,1.2-1.2c-0.2-3.9-0.2-7.9-0.1-11.9c0.1-2.9,0.1-5.8,0.2-8.6c0.2-13.6,0-26.7,0.2-40.3c0-1.8,0.1-3.7,0.1-5.6
		c0-0.6,0-1.2,0-1.8c0.4-17.5,0.3-35.9,1.4-53.8c0.2-2.9,0.4-5.7,0.6-8.5c0.2-2.1,0.3-4.2,0.5-6.3c1.2-15.9,1.9-31.9,3.1-47.4
		c0.3-4.2,0.7-8.5,1-12.7c-0.6-13-1-25.5-1.6-38.5c-0.1-2.7-0.3-5.5-0.4-8.3c-0.2-3.9-0.3-7.7-0.4-11.5c-0.3-0.4-0.5-0.8-0.6-1.1
		c-0.5-1.7,0-3.1,0.5-4.5c0.5-1.2,0.9-2.4,0.9-3.9c0-1.5-1-2.2-0.9-5c0,0.6,0.9-3.2,0.7-2.9c0.4-0.6,1.1,0.1,1.6-0.2
		c0,0,0.3-1.6,0.4-1.7c1.2-1.2,1.4-0.8,2.5-2.8c0.8-1.5,1.7-4.5,2.7-5c0.7-0.3,2.1,0.3,3,0.2c0.8-0.1,1.3-1.3,2-1.8
		c0.7-0.5,1.8-0.9,2.4-1.1c1.4-0.5,2.6-1.6,3.8-2.1c4.9-2,10.1-1.8,15.1-1c0.4,0.1,0.9,0.1,1.3,0.2c3.3,0.7,6.7,1.9,10,1.6
		c3.1-0.3,6.2,0.6,9.3,1.1c0.5,0,1,0,1.4,0c1,0,10.1,0.3,9.7-2c-0.3,0.1-0.5-0.1-0.6-0.6c0.3-0.5,4-0.9,4.8-1.3
		c0.5-0.3,0.6-1.9,1.4-2.3c1-0.5,3.2,0.1,4.3,0.1c5.2,0.1,10.4,0.6,15.8,1.4c7.6,1.2,15.4,0.3,23-0.6c6.8-1.3,13.5-2.5,20.3-3.1
		c3.8-0.4,7.6-0.6,11.6-0.8c8.9-1.3,17.8-2.5,26.9-3.4c34.5-3.3,72-4.6,106.5-3.8c22.7,0.5,45.4,2.7,67.9,3.8c4.8,0.3,10.1,1,15,1.7
		c5.6,0.8,11.7-0.1,17.4,0.9c10.6,1.8,22.3,4,33.3,2.6c8.2-1.1,16.7-4,25-3.8c9.4,0.2,18.8-2.2,28.1-2c6.8,0.2,13.8-1.3,20.6-2.1
		c0.9-0.1,1.8-0.2,2.7-0.3c10.3-1,21.1-1.5,31.5,0.3c2.6,0.5,5.3,1.6,8.2,2c1.4,0.2,3.6,0.5,5.2,1c1.7,0.5,2.8,1.8,4.4,1.8
		c1.9,0,4.8-0.7,6.3-0.3c2.1,0.4,4.2,3.5,6,5c2.3,2.1,2.8,1.6,5.3,2.8c0.2,0.1,1.1,1.8,1,1.7c1,0.3,2.4-0.5,3.3,0.1
		c-0.4-0.3,1.8,3.6,1.7,3c0.4,2.9-1.6,3.7-1.5,5.3c0.1,1.6,1.2,2.8,2.2,4C583.2,39,584.3,40.4,583.4,42.2z"/>
</g>
</svg>
